<mxfile host="Electron" modified="2023-10-04T07:14:08.914Z" agent="Mozilla/5.0 (Windows NT 10.0; Win64; x64) AppleWebKit/537.36 (KHTML, like Gecko) draw.io/21.7.5 Chrome/114.0.5735.289 Electron/25.8.1 Safari/537.36" etag="pmYv-wc_MB0WRTRC25p-" version="21.7.5" type="device">
  <diagram id="C5RBs43oDa-KdzZeNtuy" name="Page-1">
    <mxGraphModel dx="967" dy="554" grid="0" gridSize="10" guides="1" tooltips="1" connect="1" arrows="1" fold="1" page="1" pageScale="1" pageWidth="827" pageHeight="1169" math="0" shadow="0">
      <root>
        <mxCell id="WIyWlLk6GJQsqaUBKTNV-0" />
        <mxCell id="WIyWlLk6GJQsqaUBKTNV-1" parent="WIyWlLk6GJQsqaUBKTNV-0" />
        <mxCell id="tw6A6XU--vAwcZ3afUkT-0" value="&lt;br&gt;Math" style="swimlane;fontStyle=1;align=center;verticalAlign=top;childLayout=stackLayout;horizontal=1;startSize=40;horizontalStack=0;resizeParent=1;resizeParentMax=0;resizeLast=0;collapsible=1;marginBottom=0;whiteSpace=wrap;html=1;strokeColor=#464F55;fontColor=#FFFFFF;fillColor=#2C6879;rounded=1;labelBackgroundColor=none;" parent="WIyWlLk6GJQsqaUBKTNV-1" vertex="1">
          <mxGeometry x="407" y="346" width="160" height="115" as="geometry">
            <mxRectangle x="330" y="270" width="120" height="40" as="alternateBounds" />
          </mxGeometry>
        </mxCell>
        <mxCell id="tw6A6XU--vAwcZ3afUkT-1" value="&amp;nbsp;" style="text;strokeColor=none;fillColor=none;align=left;verticalAlign=top;spacingLeft=4;spacingRight=4;overflow=hidden;rotatable=0;points=[[0,0.5],[1,0.5]];portConstraint=eastwest;whiteSpace=wrap;html=1;fontColor=#464F55;rounded=1;labelBackgroundColor=none;" parent="tw6A6XU--vAwcZ3afUkT-0" vertex="1">
          <mxGeometry y="40" width="160" height="26" as="geometry" />
        </mxCell>
        <mxCell id="tw6A6XU--vAwcZ3afUkT-2" value="" style="line;strokeWidth=1;fillColor=none;align=left;verticalAlign=middle;spacingTop=-1;spacingLeft=3;spacingRight=3;rotatable=0;labelPosition=right;points=[];portConstraint=eastwest;strokeColor=#464F55;fontColor=#1A1A1A;rounded=1;labelBackgroundColor=none;" parent="tw6A6XU--vAwcZ3afUkT-0" vertex="1">
          <mxGeometry y="66" width="160" height="8" as="geometry" />
        </mxCell>
        <mxCell id="tw6A6XU--vAwcZ3afUkT-3" value="+ add(a, b): int&lt;br&gt;+ subtract(a, b): int&lt;br&gt;" style="text;strokeColor=none;fillColor=none;align=left;verticalAlign=top;spacingLeft=4;spacingRight=4;overflow=hidden;rotatable=0;points=[[0,0.5],[1,0.5]];portConstraint=eastwest;whiteSpace=wrap;html=1;fontColor=#464F55;rounded=1;labelBackgroundColor=none;" parent="tw6A6XU--vAwcZ3afUkT-0" vertex="1">
          <mxGeometry y="74" width="160" height="41" as="geometry" />
        </mxCell>
        <mxCell id="uNjcbFg-0c2UX1hY1UqT-0" value="&lt;br&gt;Calculator" style="swimlane;fontStyle=1;align=center;verticalAlign=top;childLayout=stackLayout;horizontal=1;startSize=40;horizontalStack=0;resizeParent=1;resizeParentMax=0;resizeLast=0;collapsible=1;marginBottom=0;whiteSpace=wrap;html=1;strokeColor=#464F55;fontColor=#FFFFFF;fillColor=#2C6879;rounded=1;labelBackgroundColor=none;" vertex="1" parent="WIyWlLk6GJQsqaUBKTNV-1">
          <mxGeometry x="167" y="346" width="160" height="115" as="geometry">
            <mxRectangle x="330" y="270" width="120" height="40" as="alternateBounds" />
          </mxGeometry>
        </mxCell>
        <mxCell id="uNjcbFg-0c2UX1hY1UqT-1" value="+ math: Math()" style="text;strokeColor=none;fillColor=none;align=left;verticalAlign=top;spacingLeft=4;spacingRight=4;overflow=hidden;rotatable=0;points=[[0,0.5],[1,0.5]];portConstraint=eastwest;whiteSpace=wrap;html=1;fontColor=#464F55;rounded=1;labelBackgroundColor=none;" vertex="1" parent="uNjcbFg-0c2UX1hY1UqT-0">
          <mxGeometry y="40" width="160" height="26" as="geometry" />
        </mxCell>
        <mxCell id="uNjcbFg-0c2UX1hY1UqT-2" value="" style="line;strokeWidth=1;fillColor=none;align=left;verticalAlign=middle;spacingTop=-1;spacingLeft=3;spacingRight=3;rotatable=0;labelPosition=right;points=[];portConstraint=eastwest;strokeColor=#464F55;fontColor=#1A1A1A;rounded=1;labelBackgroundColor=none;" vertex="1" parent="uNjcbFg-0c2UX1hY1UqT-0">
          <mxGeometry y="66" width="160" height="8" as="geometry" />
        </mxCell>
        <mxCell id="uNjcbFg-0c2UX1hY1UqT-3" value="+ add(a, b): int&lt;br&gt;+ subtract(a, b): int&lt;br&gt;" style="text;strokeColor=none;fillColor=none;align=left;verticalAlign=top;spacingLeft=4;spacingRight=4;overflow=hidden;rotatable=0;points=[[0,0.5],[1,0.5]];portConstraint=eastwest;whiteSpace=wrap;html=1;fontColor=#464F55;rounded=1;labelBackgroundColor=none;" vertex="1" parent="uNjcbFg-0c2UX1hY1UqT-0">
          <mxGeometry y="74" width="160" height="41" as="geometry" />
        </mxCell>
        <mxCell id="uNjcbFg-0c2UX1hY1UqT-4" style="edgeStyle=orthogonalEdgeStyle;rounded=0;orthogonalLoop=1;jettySize=auto;html=1;entryX=1;entryY=0.5;entryDx=0;entryDy=0;endArrow=diamondThin;endFill=0;startArrow=open;startFill=0;endSize=10;strokeColor=#464F55;" edge="1" parent="WIyWlLk6GJQsqaUBKTNV-1" source="tw6A6XU--vAwcZ3afUkT-1" target="uNjcbFg-0c2UX1hY1UqT-1">
          <mxGeometry relative="1" as="geometry" />
        </mxCell>
      </root>
    </mxGraphModel>
  </diagram>
</mxfile>
